<?xml version="1.0" encoding="utf-8"?><!-- Icons by IcoMoon.io --><!DOCTYPE svg PUBLIC "-//W3C//DTD SVG 1.1//EN" "http://www.w3.org/Graphics/SVG/1.1/DTD/svg11.dtd"><svg version="1.1" xmlns="http://www.w3.org/2000/svg" xmlns:xlink="http://www.w3.org/1999/xlink"><symbol id="icon-facebook" viewBox="0 0 64 64"><title>Facebook</title><path d="M32 0c-17.673 0-32 14.327-32 32s14.327 32 32 32v-24h-8v-8h8v-6c0-5.523 4.477-10 10-10h10v8h-10c-1.105 0-2 0.895-2 2v6h11l-2 8h-9v22.992c13.802-3.552 24-16.081 24-30.992 0-17.673-14.327-32-32-32z"></path></symbol><symbol id="icon-twitter" viewBox="0 0 64 64"><title>Twitter</title><path d="M64 12.151c-2.355 1.044-4.885 1.75-7.541 2.067 2.711-1.625 4.793-4.198 5.773-7.264-2.537 1.505-5.347 2.597-8.338 3.186-2.395-2.552-5.808-4.146-9.584-4.146-7.251 0-13.13 5.879-13.13 13.13 0 1.029 0.116 2.031 0.34 2.992-10.912-0.548-20.588-5.775-27.064-13.719-1.13 1.939-1.778 4.195-1.778 6.601 0 4.556 2.318 8.575 5.841 10.929-2.152-0.068-4.177-0.659-5.947-1.642-0.001 0.055-0.001 0.11-0.001 0.165 0 6.362 4.526 11.668 10.533 12.875-1.102 0.3-2.262 0.461-3.459 0.461-0.846 0-1.669-0.083-2.47-0.236 1.671 5.216 6.52 9.013 12.266 9.118-4.494 3.522-10.155 5.621-16.307 5.621-1.060 0-2.105-0.062-3.132-0.184 5.811 3.726 12.713 5.9 20.128 5.9 24.151 0 37.358-20.008 37.358-37.359 0-0.569-0.013-1.136-0.038-1.699 2.566-1.851 4.792-4.164 6.552-6.797z"></path></symbol><symbol id="icon-vimeo" viewBox="0 0 64 64"><title>Vimeo</title><path d="M0 19.273l2.6 3.409c0 0 5.361-4.226 7.148-2.113s8.608 27.622 10.886 32.328c1.988 4.127 7.47 9.582 13.482 5.686 6.008-3.896 25.99-20.955 29.567-41.101 3.574-20.139-24.045-15.92-26.971 1.626 7.312-4.39 11.215 1.784 7.473 8.773-3.735 6.983-7.148 11.537-8.934 11.537-1.784 0-3.156-4.673-5.199-12.84-2.112-8.444-2.099-23.654-10.882-21.929-8.282 1.626-19.168 14.624-19.168 14.624z"></path></symbol><symbol id="icon-tumblr" viewBox="0 0 64 64"><title>Tumblr</title><path d="M36.002 28l-0 14.636c0 3.714-0.048 5.853 0.346 6.906 0.391 1.047 1.37 2.134 2.437 2.763 1.418 0.849 3.034 1.273 4.857 1.273 3.241 0 5.155-0.428 8.359-2.534v9.621c-2.731 1.285-5.117 2.037-7.333 2.558-2.219 0.515-4.616 0.775-7.191 0.775-2.927 0-4.654-0.368-6.901-1.103-2.247-0.742-4.166-1.8-5.751-3.159-1.591-1.37-2.689-2.825-3.303-4.364s-0.92-3.776-0.92-6.703v-22.444h-8.589v-9.063c2.513-0.815 5.323-1.987 7.111-3.509 1.797-1.528 3.235-3.357 4.319-5.497 1.087-2.134 1.834-4.857 2.242-8.157h10.318l-0 16h15.998v12h-15.998z"></path></symbol><symbol id="icon-linkedin" viewBox="0 0 64 64"><title>LinkedIn</title><path d="M53.25 0h-42.5c-5.912 0-10.75 4.838-10.75 10.75v42.5c0 5.913 4.838 10.75 10.75 10.75h42.5c5.913 0 10.75-4.837 10.75-10.75v-42.5c0-5.912-4.837-10.75-10.75-10.75zM24 52h-8v-28h8v28zM20 20c-2.209 0-4-1.791-4-4s1.791-4 4-4 4 1.791 4 4-1.791 4-4 4zM52 52h-8v-16c0-2.209-1.791-4-4-4s-4 1.791-4 4v16h-8v-28h8v4.967c1.65-2.267 4.172-4.967 7-4.967 4.971 0 9 4.477 9 10v18z"></path></symbol><symbol id="icon-googleplus" viewBox="0 0 64 64"><title>Google+</title><path d="M27.313 51.135c0 4.692-2.899 8.4-11.11 8.698-4.811-2.737-8.843-6.684-11.682-11.429 1.481-3.656 6.106-6.44 11.395-6.382 1.501 0.016 2.901 0.257 4.172 0.669 3.494 2.429 6.313 3.947 7.020 6.715 0.132 0.56 0.205 1.138 0.205 1.728zM32 0c-9.246 0-17.575 3.923-23.417 10.194 2.308-1.278 5.034-2.040 7.931-2.040 4.192 0 16.027 0 16.027 0l-3.581 3.759h-4.207c2.968 1.701 4.547 5.203 4.547 9.063 0 3.543-1.963 6.399-4.736 8.566-2.705 2.113-3.218 2.998-3.218 4.796 0 1.534 3.233 3.819 4.719 4.934 5.176 3.882 6.224 6.324 6.224 11.179 0 4.92-4.309 9.819-11.617 11.484 3.522 1.334 7.339 2.066 11.328 2.066 17.673 0 32-14.327 32-32s-14.327-32-32-32zM48 24v8h-4v-8h-8v-4h8v-8h4v8h8v4h-8zM22.86 21.217c0.745 5.674-1.74 9.324-6.058 9.196-4.32-0.13-8.425-4.093-9.171-9.765-0.745-5.674 2.151-10.016 6.471-9.887 4.318 0.13 8.014 4.784 8.759 10.457zM13.805 40.129c-4.668 0-8.633 1.611-11.428 3.992-1.531-3.739-2.378-7.831-2.378-12.121 0-3.548 0.579-6.96 1.645-10.15 0.461 6.215 4.835 11.012 12.061 11.012 0.532 0 1.048-0.028 1.555-0.064-0.497 0.952-0.851 2.012-0.851 3.124 0 1.873 1.030 2.942 2.304 4.181-0.963 0-1.892 0.026-2.907 0.026z"></path></symbol><symbol id="icon-instagram" viewBox="0 0 64 64"><title>Instagram</title><path d="M53.375 0h-42.75c-5.844 0-10.625 4.781-10.625 10.625v42.75c0 5.844 4.781 10.625 10.625 10.625h42.75c5.844 0 10.625-4.781 10.625-10.625v-42.75c0-5.844-4.781-10.625-10.625-10.625zM20.488 28h23.025c0.437 1.254 0.675 2.599 0.675 4 0 6.72-5.467 12.188-12.188 12.188s-12.188-5.467-12.188-12.188c0-1.401 0.238-2.746 0.675-4zM56 28.003v23.997c0 2.2-1.8 4-4 4h-40c-2.2 0-4-1.8-4-4v-24h6.257c-0.29 1.288-0.444 2.626-0.444 4 0 10.029 8.159 18.188 18.188 18.188s18.188-8.159 18.188-18.188c0-1.374-0.154-2.712-0.444-4l6.257 0.003zM56 14c0 1.1-0.9 2-2 2h-4c-1.1 0-2-0.9-2-2v-4c0-1.1 0.9-2 2-2h4c1.1 0 2 0.9 2 2v4z"></path></symbol></svg>