<?xml version="1.0" encoding="utf-8"?>
<!-- Icons by IcoMoon.io -->
<!DOCTYPE svg PUBLIC "-//W3C//DTD SVG 1.1//EN" "http://www.w3.org/Graphics/SVG/1.1/DTD/svg11.dtd">
<svg version="1.1" xmlns="http://www.w3.org/2000/svg" xmlns:xlink="http://www.w3.org/1999/xlink">
	<symbol id="icon-facebook" viewBox="0 0 64 64">
		<title>Facebook</title>
		<path d="M32 0c-17.673 0-32 14.327-32 32s14.327 32 32 32v-24h-8v-8h8v-6c0-5.523 4.477-10 10-10h10v8h-10c-1.105 0-2 0.895-2 2v6h11l-2 8h-9v22.992c13.802-3.552 24-16.081 24-30.992 0-17.673-14.327-32-32-32z"/>
	</symbol>
	<symbol id="icon-twitter" viewBox="0 0 64 64">
		<title>Twitter</title>
		<path d="M64 12.151c-2.355 1.044-4.885 1.75-7.541 2.067 2.711-1.625 4.793-4.198 5.773-7.264-2.537 1.505-5.347 2.597-8.338 3.186-2.395-2.552-5.808-4.146-9.584-4.146-7.251 0-13.13 5.879-13.13 13.13 0 1.029 0.116 2.031 0.34 2.992-10.912-0.548-20.588-5.775-27.064-13.719-1.13 1.939-1.778 4.195-1.778 6.601 0 4.556 2.318 8.575 5.841 10.929-2.152-0.068-4.177-0.659-5.947-1.642-0.001 0.055-0.001 0.11-0.001 0.165 0 6.362 4.526 11.668 10.533 12.875-1.102 0.3-2.262 0.461-3.459 0.461-0.846 0-1.669-0.083-2.47-0.236 1.671 5.216 6.52 9.013 12.266 9.118-4.494 3.522-10.155 5.621-16.307 5.621-1.060 0-2.105-0.062-3.132-0.184 5.811 3.726 12.713 5.9 20.128 5.9 24.151 0 37.358-20.008 37.358-37.359 0-0.569-0.013-1.136-0.038-1.699 2.566-1.851 4.792-4.164 6.552-6.797z"/>
	</symbol>
	<symbol id="icon-vimeo" viewBox="0 0 64 64">
		<title>Vimeo</title>
		<path d="M0 19.273l2.6 3.409c0 0 5.361-4.226 7.148-2.113s8.608 27.622 10.886 32.328c1.988 4.127 7.47 9.582 13.482 5.686 6.008-3.896 25.99-20.955 29.567-41.101 3.574-20.139-24.045-15.92-26.971 1.626 7.312-4.39 11.215 1.784 7.473 8.773-3.735 6.983-7.148 11.537-8.934 11.537-1.784 0-3.156-4.673-5.199-12.84-2.112-8.444-2.099-23.654-10.882-21.929-8.282 1.626-19.168 14.624-19.168 14.624z"/>
	</symbol>
	<symbol id="icon-tumblr" viewBox="0 0 64 64">
		<title>Tumblr</title>
		<path d="M36.002 28l-0 14.636c0 3.714-0.048 5.853 0.346 6.906 0.391 1.047 1.37 2.134 2.437 2.763 1.418 0.849 3.034 1.273 4.857 1.273 3.241 0 5.155-0.428 8.359-2.534v9.621c-2.731 1.285-5.117 2.037-7.333 2.558-2.219 0.515-4.616 0.775-7.191 0.775-2.927 0-4.654-0.368-6.901-1.103-2.247-0.742-4.166-1.8-5.751-3.159-1.591-1.37-2.689-2.825-3.303-4.364s-0.92-3.776-0.92-6.703v-22.444h-8.589v-9.063c2.513-0.815 5.323-1.987 7.111-3.509 1.797-1.528 3.235-3.357 4.319-5.497 1.087-2.134 1.834-4.857 2.242-8.157h10.318l-0 16h15.998v12h-15.998z"/>
	</symbol>
	<symbol id="icon-linkedin" viewBox="0 0 64 64">
		<title>LinkedIn</title>
		<path d="M53.25 0h-42.5c-5.912 0-10.75 4.838-10.75 10.75v42.5c0 5.913 4.838 10.75 10.75 10.75h42.5c5.913 0 10.75-4.837 10.75-10.75v-42.5c0-5.912-4.837-10.75-10.75-10.75zM24 52h-8v-28h8v28zM20 20c-2.209 0-4-1.791-4-4s1.791-4 4-4 4 1.791 4 4-1.791 4-4 4zM52 52h-8v-16c0-2.209-1.791-4-4-4s-4 1.791-4 4v16h-8v-28h8v4.967c1.65-2.267 4.172-4.967 7-4.967 4.971 0 9 4.477 9 10v18z"/>
	</symbol>
	<symbol id="icon-googleplus" viewBox="0 0 64 64">
		<title>Google+</title>
		<path d="M27.313 51.135c0 4.692-2.899 8.4-11.11 8.698-4.811-2.737-8.843-6.684-11.682-11.429 1.481-3.656 6.106-6.44 11.395-6.382 1.501 0.016 2.901 0.257 4.172 0.669 3.494 2.429 6.313 3.947 7.020 6.715 0.132 0.56 0.205 1.138 0.205 1.728zM32 0c-9.246 0-17.575 3.923-23.417 10.194 2.308-1.278 5.034-2.040 7.931-2.040 4.192 0 16.027 0 16.027 0l-3.581 3.759h-4.207c2.968 1.701 4.547 5.203 4.547 9.063 0 3.543-1.963 6.399-4.736 8.566-2.705 2.113-3.218 2.998-3.218 4.796 0 1.534 3.233 3.819 4.719 4.934 5.176 3.882 6.224 6.324 6.224 11.179 0 4.92-4.309 9.819-11.617 11.484 3.522 1.334 7.339 2.066 11.328 2.066 17.673 0 32-14.327 32-32s-14.327-32-32-32zM48 24v8h-4v-8h-8v-4h8v-8h4v8h8v4h-8zM22.86 21.217c0.745 5.674-1.74 9.324-6.058 9.196-4.32-0.13-8.425-4.093-9.171-9.765-0.745-5.674 2.151-10.016 6.471-9.887 4.318 0.13 8.014 4.784 8.759 10.457zM13.805 40.129c-4.668 0-8.633 1.611-11.428 3.992-1.531-3.739-2.378-7.831-2.378-12.121 0-3.548 0.579-6.96 1.645-10.15 0.461 6.215 4.835 11.012 12.061 11.012 0.532 0 1.048-0.028 1.555-0.064-0.497 0.952-0.851 2.012-0.851 3.124 0 1.873 1.030 2.942 2.304 4.181-0.963 0-1.892 0.026-2.907 0.026z"/>
	</symbol>
	<symbol id="icon-instagram" viewBox="0 0 64 64">
		<title>Instagram</title>
		<path d="M53.375 0h-42.75c-5.844 0-10.625 4.781-10.625 10.625v42.75c0 5.844 4.781 10.625 10.625 10.625h42.75c5.844 0 10.625-4.781 10.625-10.625v-42.75c0-5.844-4.781-10.625-10.625-10.625zM20.488 28h23.025c0.437 1.254 0.675 2.599 0.675 4 0 6.72-5.467 12.188-12.188 12.188s-12.188-5.467-12.188-12.188c0-1.401 0.238-2.746 0.675-4zM56 28.003v23.997c0 2.2-1.8 4-4 4h-40c-2.2 0-4-1.8-4-4v-24h6.257c-0.29 1.288-0.444 2.626-0.444 4 0 10.029 8.159 18.188 18.188 18.188s18.188-8.159 18.188-18.188c0-1.374-0.154-2.712-0.444-4l6.257 0.003zM56 14c0 1.1-0.9 2-2 2h-4c-1.1 0-2-0.9-2-2v-4c0-1.1 0.9-2 2-2h4c1.1 0 2 0.9 2 2v4z"/>
	</symbol>
	<symbol id="icon-up" viewBox="0 0 64 64">
		<title>Back to top</title>
		<path d="M0 32c0 17.673 14.327 32 32 32s32-14.327 32-32-14.327-32-32-32-32 14.327-32 32zM58 32c0 14.359-11.641 26-26 26s-26-11.641-26-26 11.641-26 26-26 26 11.641 26 26z"/><path d="M44.172 41.828l5.657-5.657-17.828-17.828-17.828 17.828 5.657 5.657 12.172-12.172z"/>
	</symbol>
	<symbol id="icon-jh" viewBox="0 0 64 64">
		<title>John Harrigan logo</title>
		<path d="M62.81,23.963c0.188,0.893,0.579,3.193,0.346,4.148
	c-0.505,2.069-0.347,5.334-0.346,7.95c0,3.637-0.14,7.711,0.173,11.062c0.283,3.026-0.41,6.598,0.173,9.332
	c0.239,1.123-0.06,2.644-0.691,2.938c-0.576,0-1.152,0-1.729,0c-0.887-0.546-3.411-0.173-4.667-0.173c-4.031,0-8.065,0-12.098,0
	c-13.819,0-27.927-0.19-42.344-0.173c-0.808-1.345-0.519-4.254-0.519-6.395c0-4.839,0-9.679,0-14.519
	c0.346-0.554,0.421-7.242,0.173-8.295c-0.173-0.634-0.346-1.268-0.519-1.901c0.92-7.14-0.264-15.467,0.346-22.986
	c0.217-0.113,0.358-0.188,0.519-0.346c1.667-0.002,3.207,0.066,4.494,0.346c12.212,0,24.428,0,36.64,0c4.666,0,9.333,0,13.999,0
	c2.207,0,3.855-0.523,5.704-0.173c0.166,0.305,0.218,0.291,0.346,0.691c0.405,0.668,0.001,2.199,0,3.284c0,2.938,0,5.876,0,8.814
	C62.81,19.7,62.81,21.832,62.81,23.963z M60.908,53.863c0-0.059,0-0.115,0-0.174c0.693-0.656,0.346-3.224,0.346-4.493
	c0-4.263,0-8.526,0-12.79c-0.518-0.812-0.192-5.205-0.173-6.567c-0.647-0.434-0.702-0.687-1.901-0.691
	c-0.738-0.461-2.26,0.019-3.283-0.173c-1.955-0.367-4.608-0.186-7.086-0.173c-0.614,0.485-1.459,0.561-1.902,1.21
	c-0.748,1.098-1.004,2.367-1.555,3.629c-0.631,1.444-1.682,2.189-1.729,4.321c3.692,3.459,7.168,7.298,11.234,10.369
	C56.486,49.562,59.104,53.209,60.908,53.863z M42.242,27.074c0.543,0.317,3.506,0.133,4.494,0c0.973-1.53,2.146-3.26,3.111-4.839
	c0.996-1.633,1.438-3.377,2.419-5.012c0.788-1.313,1.882-2.849,2.074-4.667c-1.763,0.263-2.879,1.914-4.147,2.765
	c-3.777,2.533-7.271,5.458-10.889,8.123c-1.152,0.849-3.559,1.803-3.803,3.457C37.203,27.471,40.205,27.088,42.242,27.074z
	 M34.983,28.629c-0.212,0.395-0.283,0.389-0.346,1.037c1.786,1.728,3.572,3.457,5.358,5.185c0.604,0.604,1.014,1.408,1.9,1.729
	c1.256-2.033,3.338-4.626,3.63-7.432c-0.173-0.058-0.346-0.115-0.519-0.173c-0.643-0.402-2.325-0.161-3.283-0.173
	C39.682,28.776,37.271,28.611,34.983,28.629z M37.058,57.319c0.831,0.461,5.034,0,6.395,0c4.709,0.001,9.562,0.026,14.519,0
	c0.108-0.303,0.033-0.167,0.172-0.345c0-0.115,0-0.23,0-0.346c-0.996-0.662-1.699-1.641-2.42-2.594
	c-1.285-1.702-3.168-2.922-4.493-4.666c-0.253-0.334-0.745-0.398-1.036-0.691c-1.792-1.798-3.656-3.852-5.186-5.876
	c-0.807-0.807-1.613-1.613-2.42-2.42c-0.173,0-0.346,0-0.519,0c-2.216,3.646-4.077,7.487-5.876,11.58
	c-0.717,1.632-2.191,2.952-2.42,5.013C34.519,57.369,35.83,57.342,37.058,57.319z M33.255,39.518
	c0.454,0.729,0.173,2.738,0.173,3.803c0.058,2.995,0.115,5.992,0.173,8.987c0.173,0,0.346,0,0.519,0
	c0.363-1.469,1.365-2.808,2.074-3.976c1.301-2.145,2.092-4.423,3.111-6.74c0.482-1.098,1.266-1.744,1.383-3.283
	c-1.729-1.729-3.457-3.457-5.186-5.186c-0.482-0.636-1.165-1.93-1.901-1.729C33.02,31.779,33.225,38.146,33.255,39.518z
	 M6.121,57.146c7.894,0.325,16.421,0.347,23.851,0.173c0.093-0.262,0.117-0.292,0.173-0.69c-1.403-1.835-2.148-4.379-3.111-6.568
	c-1.409-3.203-3.855-6.365-4.839-9.852c-0.23,0-0.461,0-0.691,0c-0.691,0.691-1.383,1.383-2.074,2.074
	c-2.714,3.592-6.446,6.259-9.16,9.852c-1.137,1.505-3.887,2.79-4.321,4.84C6.005,57.031,6.063,57.089,6.121,57.146z M26.169,28.802
	c-0.928,0.603-3.198,0.031-4.494,0c-0.428,0.284-1.538,0.194-2.247,0.173c-0.212,0.395-0.283,0.389-0.346,1.037
	c1.01,1.193,2.295,5.823,3.802,6.048c1.228-1.832,5.885-4.923,6.222-6.913C28.425,28.785,27.318,28.781,26.169,28.802z
	 M28.589,26.901c0-0.115,0-0.23,0-0.346c-2.062-0.693-3.86-2.912-5.531-4.148c-3.645-2.699-7.17-5.332-10.889-7.951
	c-1.429-1.006-2.631-2.765-4.667-3.111c0.283,1.973,2.145,3.565,3.111,5.012c2.472,3.703,4.754,7.567,7.777,10.716
	c3.341,0.058,6.683,0.115,10.024,0.172C28.525,26.944,28.449,27.079,28.589,26.901z M2.664,41.246
	c0.362,1.707,0.173,4.222,0.173,6.223c0.058,2.131,0.115,4.263,0.172,6.395c0.303,0.109,0.168,0.033,0.346,0.172
	c1.268-0.447,3.332-2.985,4.321-3.975c3.025-3.023,6.136-5.963,9.16-8.987c1.224-1.224,3.582-2.374,3.629-4.667
	c-1.304-1.522-2.616-6.801-4.321-7.431c-1.047-0.661-7.399-0.192-9.16-0.173c-0.694,0.45-2.768,0.196-3.803,0.173
	c-1.025,1.687-0.543,5.898-0.518,8.468C3.256,38.406,2.38,39.908,2.664,41.246z M2.664,8.408c-0.493,1.487-0.173,4.07-0.173,5.876
	c0.058,4.148,0.115,8.296,0.173,12.444c1.502,0.916,5.086,0.543,7.432,0.518c0.686,0.425,3.802,0.043,5.012,0
	c0.058-0.172,0.115-0.345,0.173-0.518c-0.07-1.317-2.409-3.705-3.284-5.012c-2.965-4.43-6.093-8.779-8.814-13.308
	C3.009,8.408,2.837,8.408,2.664,8.408z M31.354,20.852c0-3.572,0-7.144,0-10.716c-0.402-0.641-0.209-2.708-0.346-3.457
	c-0.173-0.058-0.346-0.115-0.519-0.173c-0.883-0.548-5.303-0.173-6.74-0.173c-5.991,0-11.984,0-17.975,0
	C5.682,6.596,5.658,6.627,5.602,7.025c3.333,2.08,6.039,5.163,9.16,7.432c2.742,1.994,5.352,3.888,8.123,5.876
	c1.799,1.291,5.605,5.285,7.95,5.531C31.5,24.76,31.354,22.691,31.354,20.852z M31.354,47.123c0-5.357,0-10.717,0-16.074
	c-0.115-0.115-0.23-0.23-0.346-0.346c-0.173,0-0.346,0-0.519,0c-1.287,1.913-6.839,5.583-7.086,7.605
	c-0.38,0.742,0.972,2.854,1.382,3.629c1.511,2.853,3.011,5.804,4.494,8.642c0.529,1.011,0.89,2.956,1.901,3.456
	c0-0.057,0-0.115,0-0.172C31.729,52.98,31.354,48.56,31.354,47.123z M54.687,6.507c-2.823,0-5.646,0-8.47,0
	c-0.694-0.436-2.604-0.173-3.629-0.173c-2.995,0-5.992,0-8.987,0c-0.754,1.254-0.519,3.849-0.519,5.876c0,4.378,0,8.757,0,13.135
	c0.303,0.109,0.168,0.033,0.346,0.173c0.303-0.109,0.168-0.033,0.346-0.173c2.371-0.735,4.975-3.602,6.914-5.012
	c1.715-1.247,3.461-2.21,5.185-3.457c2.096-1.517,4.108-3.488,6.222-5.012c1.184-0.853,6.301-4.006,6.568-5.185
	C57.675,6.353,55.959,6.507,54.687,6.507z M61.427,21.371c0-4.436,0-8.873,0-13.308c-0.23-0.115-0.461-0.23-0.691-0.346
	c-0.979,0.749-1.959,1.498-2.938,2.247c-0.698,0.955-0.924,2.071-1.555,3.111c-1.102,1.813-2.476,3.812-3.457,5.703
	c-0.414,0.797-0.42,1.512-0.864,2.247c-1.048,1.732-2.827,3.784-2.938,6.222c0.174,0.058,0.346,0.115,0.52,0.173
	c0.633,0.398,2.332,0.173,3.283,0.173c2.65,0,5.301,0,7.95,0C61.609,26.229,61.427,23.701,61.427,21.371z"/>
	</symbol>
</svg>
